# AST/ASF file generated using VICON BodyLanguage
# -----------------------------------------------
:version 1.10
:name VICON
:units
  mass 1.0
  length 0.45
  angle deg
:documentation
   .ast/.asf automatically generated from VICON data using
   VICON BodyBuilder and BodyLanguage model FoxedUp or BRILLIANT.MOD
:root
   order TX TY TZ RX RY RZ
   axis XYZ
   position 0 0 0  
   orientation 0 0 0 
:bonedata
  begin
     id 1 
     name lhipjoint
     direction 0.693937 -0.600361 0.397515 
     length 2.37164 
     axis 0 0 0  XYZ
  end
  begin
     id 2 
     name lfemur
     direction 0.34202 -0.939693 0  
     length 6.18497  
     axis 0 0 20  XYZ
    dof rx ry rz
    limits (-160.0 20.0)
           (-70.0 70.0)
           (-60.0 70.0)
  end
  begin
     id 3 
     name ltibia
     direction 0.34202 -0.939693 0   
     length 6.91601   
     axis 0 0 20   XYZ
    dof rx
    limits (-10.0 170.0)
  end
  begin
     id 4 
     name lfoot
     direction 0.0978718 -0.2689 0.958182   
     length 1.81453   
     axis -90 7.62852e-016 20   XYZ
    dof rx rz
    limits (-45.0 90.0)
           (-70.0 20.0)
  end
  begin
     id 5 
     name ltoes
     direction 1.53569e-011 -4.21951e-011 1   
     length 0.912052   
     axis -90 7.62852e-016 20   XYZ
    dof rx
    limits (-90.0 20.0)
  end
  begin
     id 6 
     name rhipjoint
     direction -0.643996 -0.637876 0.422354   
     length 2.23216  
     axis 0 0 0  XYZ 
  end
  begin
     id 7 
     name rfemur
     direction -0.34202 -0.939693 0   
     length 6.15404   
     axis 0 0 -20   XYZ
    dof rx ry rz
    limits (-160.0 20.0)
           (-70.0 70.0)
           (-70.0 60.0)
  end
  begin
     id 8 
     name rtibia
     direction -0.34202 -0.939693 0   
     length 6.86744   
     axis 0 0 -20   XYZ
    dof rx
    limits (-10.0 170.0)
 end
 begin
     id 9 
     name rfoot
     direction -0.118701 -0.326127 0.937844   
     length 1.9243  
     axis -90 -7.62852e-016 -20   XYZ
    dof rx rz
    limits (-45.0 90.0)
           (-20.0 70.0)
  end
  begin
     id 10 
     name rtoes
     direction -1.5356e-011 -4.2181e-011 1   
     length 0.958865   
     axis -90 -7.62852e-016 -20   XYZ
    dof rx
    limits (-90.0 20.0)
  end
  begin
     id 11 
     name lowerback
     direction 0.0310826 0.968686 -0.246334   
     length 2.00021   
     axis 0 0 0   XYZ
    dof rx ry rz
    limits (-20.0 45.0)
           (-30.0 30.0)
           (-30.0 30.0)
  end
  begin
     id 12 
     name upperback
     direction -0.0152834 0.999474 -0.0286152   
     length 2.03728   
     axis 0 0 0   XYZ
    dof rx ry rz
    limits (-20.0 45.0)
           (-30.0 30.0)
           (-30.0 30.0)
  end
  begin
     id 13 
     name thorax
     direction -0.0323701 0.996236 0.0804149   
     length 2.16   
     axis 0 0 0   XYZ
    dof rx ry rz
    limits (-20.0 45.0)
           (-30.0 30.0)
           (-30.0 30.0)
  end
  begin
     id 14 
     name lowerneck
     direction 0.0307935 0.982251 0.185027   
     length 1.43558   
     axis 0 0 0   XYZ
    dof rx ry rz
    limits (-20.0 45.0)
           (-30.0 30.0)
           (-30.0 30.0)
  end
  begin
     id 15 
     name upperneck
     direction -0.0927153 0.994775 0.0427454   
     length 1.44603   
     axis 0 0 0   XYZ
    dof rx ry rz
    limits (-20.0 45.0)
           (-30.0 30.0)
           (-30.0 30.0)
  end
  begin
     id 16
     name head
     direction -0.0341265 0.999406 -0.00472033  
     length 1.45931  
     axis 0 0 0   XYZ
    dof rx ry rz
    limits (-20.0 45.0)
           (-30.0 30.0)
           (-30.0 30.0)
  end
  begin
     id 17 
     name lclavicle
     direction 0.820755 0.555306 -0.134151  
     length 2.66075  
     axis 0 0 0   XYZ
    dof ry rz
    limits (-20.0 10.0)
           (0.0 20.0)
  end
  begin
     id 18 
     name lhumerus
     direction 1 -4.48971e-011 5.24853e-027   
     length 5.0546   
     axis -180 -30 -90   XYZ
    dof rx ry rz
    limits (-60.0 90.0)
           (-90.0 90.0)
           (-90.0 90.0)
  end
  begin
     id 19
     name lradius
     direction 1 -4.48971e-011 2.76575e-028   
     length 3.39013   
     axis -180 -30 -90   XYZ
    dof rx
    limits (-10.0 170.0)
  end
  begin
     id 20
     name lwrist
     direction 1 -4.48939e-011 -2.27826e-027   
     length 1.69507   
     axis 2.17013e-015 90 90   XYZ
    dof ry
    limits (-180.0 0.0)
 end
  begin
     id 21 
     name lhand
     direction 1 -4.49009e-011 -4.55652e-027   
     length 0.572425   
     axis 2.90745e-015 90 90   XYZ
    dof rx rz
    limits (-90.0 90.0)
           (-45.0 45.0)
  end
  begin
     id 22 
     name lfingers
     direction 1 -4.48955e-011 -9.11303e-027   
     length 0.461504   
     axis 5.81489e-015 90 90   XYZ
    dof rx
    limits (0.0 90.0)
  end
  begin
     id 23
     name lthumb
     direction 0.707107 -6.34929e-011 0.707107   
     length 0.66263   
     axis -90 45 2.85299e-015   XYZ
    dof rx rz
    limits (-45.0 45.0)
           (-45.0 45.0)
  end
  begin
     id 24 
     name rclavicle
     direction -0.754477 0.632921 -0.173712   
     length 2.73081  
     axis 0 0 0   XYZ 
    dof ry rz
    limits (-10.0 20.0)
           (-20.0 0.0)
  end
  begin
     id 25 
     name rhumerus
     direction -1 -4.48969e-011 5.1496e-027  
     length 5.0701   
     axis -180 30 90   XYZ
    dof rx ry rz
    limits (-90.0 60.0)
           (-90.0 90.0)
           (-90.0 90.0)
  end
  begin
     id 26 
     name rradius
     direction -1 -4.48967e-011 -7.15624e-028   
     length 3.14957   
     axis -180 30 90   XYZ
    dof rx
    limits (-10.0 170.0)
  end
  begin
     id 27 
     name rwrist
     direction -1 -4.48938e-011 -2.27826e-027   
     length 1.57479   
     axis 2.17013e-015 -90 -90   XYZ
    dof ry
    limits (-180.0 0.0)
  end
  begin
     id 28
     name rhand
     direction -1 -4.49008e-011 -4.55652e-027   
     length 0.718191   
     axis 2.90745e-015 -90 -90   XYZ
    dof rx rz
    limits (-90.0 90.0)
           (-45.0 45.0)
  end
  begin
     id 29
     name rfingers
     direction -1 -4.48953e-011 -9.11303e-027   
     length 0.579024   
     axis 5.81489e-015 -90 -90   XYZ
    dof rx
    limits (0.0 90.0)
  end
  begin
     id 30
     name rthumb
     direction -0.707107 -6.34937e-011 0.707107   
     length 0.831366   
     axis -90 -45 -2.85299e-015   XYZ
    dof rx rz
    limits (-45.0 45.0)
           (-45.0 45.0)
  end
:hierarchy
  begin
    root lhipjoint rhipjoint lowerback
    lhipjoint lfemur
    lfemur ltibia
    ltibia lfoot
    lfoot ltoes
    rhipjoint rfemur
    rfemur rtibia
    rtibia rfoot
    rfoot rtoes
    lowerback upperback
    upperback thorax
    thorax lowerneck lclavicle rclavicle
    lowerneck upperneck
    upperneck head
    lclavicle lhumerus
    lhumerus lradius
    lradius lwrist
    lwrist lhand lthumb
    lhand lfingers
    rclavicle rhumerus
    rhumerus rradius
    rradius rwrist
    rwrist rhand rthumb
    rhand rfingers
  end

#!OML:ASF H:\Male1\Project 1\Capture day 1\Session 1\Male1.ASF
:FULLY-SPECIFIED
:DEGREES
144
root 21.2384 15.1993 -1.89378 19.1013 -77.4171 -19.6205
lowerback 8.49848 1.97944 4.15869
upperback 6.31454 2.68071 0.240807
thorax 1.98354 1.38912 -2.25481
lowerneck -10.5391 2.64395 6.56709
upperneck 17.3969 2.61681 -1.78411
head 7.18743 1.46981 -1.4277
rclavicle -6.40584e-014 -5.96354e-016
rhumerus -28.3982 1.54689 -88.4935
rradius 34.3337
rwrist -21.1861
rhand -18.4842 -1.65071
rfingers 7.12502
rthumb 7.80302 -31.4867
lclavicle -6.40584e-014 -5.96354e-016
lhumerus -36.1173 5.65613 81.2677
lradius 31.0629
lwrist -0.518671
lhand -20.4289 12.5808
lfingers 7.12502
lthumb 5.92569 42.4779
rfemur 2.94638 12.4861 33.275
rtibia 19.7706
rfoot -26.9633 -23.8508
rtoes -23.8381
lfemur -30.6791 -1.36057 -17.4413
ltibia 61.735
lfoot -16.0682 13.3247
ltoes -12.4503
145
root 20.9193 15.2137 -1.83249 19.3538 -77.4823 -19.7761
lowerback 8.29169 2.0642 4.11371
upperback 6.28743 2.78657 0.120721
thorax 2.08004 1.44639 -2.35212
lowerneck -10.5384 2.69797 6.63857
upperneck 17.3566 2.6804 -1.79215
head 7.17849 1.50407 -1.43584
rclavicle -4.30369e-014 1.98785e-015
rhumerus -28.0534 2.46653 -88.9211
rradius 35.0601
rwrist -21.6012
rhand -18.2387 -1.96391
rfingers 7.12502
rthumb 8.03999 -31.791
lclavicle -4.30369e-014 1.98785e-015
lhumerus -36.5529 7.12196 80.0619
lradius 30.1931
lwrist -1.51655
lhand -20.1584 12.7321
lfingers 7.12502
lthumb 6.18692 42.6218
rfemur 6.07083 12.7158 33.7435
rtibia 16.3374
rfoot -26.1621 -24.589
rtoes -23.2093
lfemur -31.7814 -2.05321 -17.241
ltibia 57.3341
lfoot -16.4546 14.9484
ltoes -11.4261
146
root 20.5984 15.2262 -1.7701 19.6382 -77.5304 -19.92
lowerback 8.05199 2.13431 4.02598
upperback 6.23225 2.87192 -0.00822422
thorax 2.16204 1.49208 -2.43235
lowerneck -10.5279 2.73918 6.71778
upperneck 17.3139 2.72205 -1.78203
head 7.16606 1.52977 -1.44154
rclavicle -7.09661e-014 2.00773e-014
rhumerus -27.732 3.33024 -89.3319
rradius 35.7757
rwrist -21.8016
rhand -17.8823 -2.21077
rfingers 7.12502
rthumb 8.38392 -32.0244
lclavicle -7.09661e-014 2.00773e-014
lhumerus -36.9959 8.49781 78.8341
lradius 29.3325
lwrist -2.55075
lhand -19.9525 12.7386
lfingers 7.12502
lthumb 6.38568 42.6224
rfemur 9.75631 12.8264 34.1931
rtibia 11.7191
rfoot -24.6722 -25.3583
rtoes -22.5193
lfemur -32.624 -2.89698 -16.9156
ltibia 52.5734
lfoot -16.5021 16.8539
ltoes -10.8071
147
root 20.2767 15.2327 -1.70617 19.9858 -77.5726 -20.1291
lowerback 7.80714 2.19357 3.90343
upperback 6.16907 2.94184 -0.136776
thorax 2.23555 1.52862 -2.49143
lowerneck -10.5022 2.76764 6.79413
upperneck 17.2619 2.74276 -1.74542
head 7.14674 1.54737 -1.44032
rclavicle 2.98177e-016 -1.35174e-014
rhumerus -27.4333 4.12907 -89.7181
rradius 36.4707
rwrist -21.837
rhand -17.4935 -2.57856
rfingers 7.12502
rthumb 8.7591 -32.3768
lclavicle 2.98177e-016 -1.35174e-014
lhumerus -37.4242 9.77485 77.6145
lradius 28.4731
lwrist -3.61792
lhand -19.8496 12.7676
lfingers 7.12502
lthumb 6.48497 42.6483
rfemur 15.3934 11.7972 34.3388
rtibia 3.25214
rfoot -20.9107 -25.2409
rtoes -21.8299
lfemur -33.2201 -3.96977 -16.4257
ltibia 47.7213
lfoot -16.6122 18.9441
ltoes -9.96415
148
root 19.9542 15.2312 -1.63967 20.4549 -77.622 -20.5106
lowerback 7.58645 2.24889 3.76852
upperback 6.11903 3.00617 -0.254917
thorax 2.30799 1.56137 -2.53286
lowerneck -10.4737 2.78542 6.84985
upperneck 17.2128 2.7453 -1.66989
head 7.1263 1.55817 -1.42484
rclavicle -2.71341e-014 -1.03368e-014
rhumerus -27.1471 4.83576 -90.0559
rradius 37.1191
rwrist -21.6745
rhand -17.1403 -2.99389
rfingers 7.12502
rthumb 9.09992 -32.7776
lclavicle -2.71341e-014 -1.03368e-014
lhumerus -37.8108 10.9438 76.4405
lradius 27.6079
lwrist -4.69082
lhand -19.7602 12.654
lfingers 7.12502
lthumb 6.57131 42.532
rfemur 18.3116 10.7897 34.4012
rtibia -4.13472e-014
rfoot -19.7027 -24.7555
rtoes -21.305
lfemur -33.5833 -5.36533 -15.7194
ltibia 43.0741
lfoot -17.2183 21.0209
ltoes -8.11939
149
root 19.6309 15.2214 -1.56951 21.1413 -77.6853 -21.2021
lowerback 7.42017 2.3074 3.65977
upperback 6.09908 3.07595 -0.354371
thorax 2.38306 1.59686 -2.57112
lowerneck -10.4516 2.79326 6.87326
upperneck 17.1742 2.73084 -1.54888
head 7.10857 1.56261 -1.39086
rclavicle -8.84592e-015 2.14687e-014
rhumerus -26.8759 5.46793 -90.3467
rradius 37.7103
rwrist -21.4167
rhand -16.9097 -3.26259
rfingers 7.12502
rthumb 9.32249 -33.0365
lclavicle -8.84592e-015 2.14687e-014
lhumerus -38.1345 11.9885 75.3437
lradius 26.745
lwrist -5.73855
lhand -19.6448 12.6169
lfingers 7.12502
lthumb 6.68274 42.4914
rfemur 19.6132 9.80926 34.4909
rtibia 4.45278e-014
rfoot -19.8993 -24.071
rtoes -21.1455
lfemur -33.738 -7.15226 -14.7506
ltibia 38.9151
lfoot -18.651 22.8273
ltoes -4.44819
150
root 19.3065 15.2048 -1.49479 22.0962 -77.7716 -22.2607
lowerback 7.30726 2.372 3.59239
upperback 6.11632 3.15496 -0.430758
thorax 2.46968 1.63757 -2.61015
lowerneck -10.4428 2.79665 6.86258
upperneck 17.1465 2.70928 -1.39551
head 7.09552 1.56423 -1.34136
rclavicle -2.49475e-014 1.63003e-014
rhumerus -26.6295 6.05596 -90.5939
rradius 38.2479
rwrist -21.1554
rhand -16.8142 -3.28629
rfingers 7.12502
rthumb 9.41458 -33.056
lclavicle -2.49475e-014 1.63003e-014
lhumerus -38.3878 12.9288 74.3379
lradius 25.8982
lwrist -6.77787
lhand -19.4637 12.6066
lfingers 7.12502
lthumb 6.85757 42.4756
rfemur 21.0107 8.87831 34.561
rtibia 6.04305e-014
rfoot -19.6939 -23.3578
rtoes -21.558
lfemur -33.7281 -9.28086 -13.551
ltibia 35.4837
lfoot -20.7087 24.2113
ltoes -0.142724
151
root 18.9806 15.1836 -1.41495 23.241 -77.8873 -23.5652
lowerback 7.21398 2.44303 3.54735
upperback 6.16176 3.24234 -0.492519
thorax 2.57631 1.68297 -2.64675
lowerneck -10.4611 2.80423 6.8322
upperneck 17.1357 2.69403 -1.23762
head 7.09259 1.56813 -1.28631
rclavicle -2.8625e-014 2.78299e-015
rhumerus -26.4201 6.60626 -90.7964
rradius 38.7482
rwrist -20.9467
rhand -16.7742 -3.08061
rfingers 7.12502
rthumb 9.45317 -32.8486
lclavicle -2.8625e-014 2.78299e-015
lhumerus -38.5631 13.8206 73.4104
lradius 25.0669
lwrist -7.88176
lhand -19.1837 12.6496
lfingers 7.12502
lthumb 7.12787 42.5096
rfemur 22.4581 8.01261 34.559
rtibia -6.36111e-015
rfoot -19.0533 -22.5813
rtoes -22.6972
lfemur -33.6099 -11.493 -12.2916
ltibia 32.925
lfoot -22.7098 25.0982
ltoes 3.33503
152
root 18.6528 15.1628 -1.32958 24.5069 -78.0442 -25.005
lowerback 7.1088 2.52357 3.51084
upperback 6.22112 3.34174 -0.554247
thorax 2.70576 1.73498 -2.68724
lowerneck -10.4974 2.81792 6.79408
upperneck 17.1351 2.68883 -1.0888
head 7.09651 1.57571 -1.23179
rclavicle -3.12092e-014 -1.03368e-014
rhumerus -26.2761 7.10859 -90.9657
rradius 39.2411
rwrist -20.8348
rhand -16.8222 -2.55206
rfingers 7.12502
rthumb 9.40688 -32.3221
lclavicle -3.12092e-014 -1.03368e-014
lhumerus -38.6623 14.6909 72.5522
lradius 24.2648
lwrist -9.04211
lhand -18.8466 12.7635
lfingers 7.12502
lthumb 7.45321 42.6122
rfemur 23.9035 7.23061 34.4442
rtibia 1.90833e-014
rfoot -17.9756 -21.6962
rtoes -24.5063
lfemur -33.3783 -13.3334 -11.2383
ltibia 31.2744
lfoot -23.9536 25.3695
ltoes 5.33129
153
root 18.3227 15.1448 -1.23865 25.8029 -78.2457 -26.4706
lowerback 6.98836 2.61351 3.46955
upperback 6.28067 3.45341 -0.629586
thorax 2.84558 1.79343 -2.73838
lowerneck -10.5312 2.83459 6.75896
upperneck 17.137 2.69073 -0.958422
head 7.10131 1.58534 -1.18312
rclavicle -3.22031e-014 1.03368e-014
rhumerus -26.2371 7.53873 -91.1192
rradius 39.7486
rwrist -20.8269
rhand -16.7025 -2.12808
rfingers 7.12502
rthumb 9.52235 -31.8929
lclavicle -3.22031e-014 1.03368e-014
lhumerus -38.7008 15.5452 71.7581
lradius 23.5175
lwrist -10.1958
lhand -18.4677 12.9287
lfingers 7.12502
lthumb 7.81897 42.7641
rfemur 25.3225 6.53207 34.1973
rtibia -3.49861e-014
rfoot -16.4797 -20.6563
rtoes -26.6517
lfemur -32.9779 -14.3678 -10.6509
ltibia 30.4507
lfoot -23.9641 24.9927
ltoes 5.37852
